<svg width="49" height="49" viewBox="0 0 49 49" fill="none" xmlns="http://www.w3.org/2000/svg">
<g filter="url(#filter0_b_245_64386)">
<circle cx="24.2711" cy="24.4528" r="22.9313" fill="#FFA503" fill-opacity="0.25"/>
<circle cx="24.2711" cy="24.4528" r="22.9313" stroke="#F39200" stroke-width="2"/>
</g>
<path d="M23.1897 34.7223C23.7879 35.3205 24.7593 35.3205 25.3574 34.7223L33.0136 27.0661C33.6118 26.4679 33.6118 25.4965 33.0136 24.8984C32.4155 24.3002 31.4441 24.3002 30.846 24.8984L25.8024 29.9467V15.2659C25.8024 14.4189 25.1181 13.7346 24.2712 13.7346C23.4242 13.7346 22.7399 14.4189 22.7399 15.2659V29.9419L17.6964 24.9032C17.0982 24.305 16.1268 24.305 15.5287 24.9032C14.9305 25.5013 14.9305 26.4727 15.5287 27.0709L23.1849 34.7271L23.1897 34.7223Z" fill="#F39200"/>
<defs>
<filter id="filter0_b_245_64386" x="-3.66016" y="-3.47852" width="55.8623" height="55.8625" filterUnits="userSpaceOnUse" color-interpolation-filters="sRGB">
<feFlood flood-opacity="0" result="BackgroundImageFix"/>
<feGaussianBlur in="BackgroundImageFix" stdDeviation="2"/>
<feComposite in2="SourceAlpha" operator="in" result="effect1_backgroundBlur_245_64386"/>
<feBlend mode="normal" in="SourceGraphic" in2="effect1_backgroundBlur_245_64386" result="shape"/>
</filter>
</defs>
</svg>
