<svg width="440" height="612" viewBox="0 0 440 612" fill="none" xmlns="http://www.w3.org/2000/svg">
<g filter="url(#filter0_d_1_1602)">
<path d="M25.5827 138V21.746H43.0509C50.8313 21.746 57.0305 22.3484 61.6486 23.5531C66.3168 24.7578 70.2572 26.7907 73.4697 29.6519C76.7325 32.6135 79.3176 36.3029 81.225 40.7201C83.1826 45.1876 84.1615 49.7052 84.1615 54.273C84.1615 62.6056 80.974 69.6581 74.5991 75.4307C80.7732 77.5389 85.6422 81.2283 89.2062 86.4989C92.8203 91.7193 94.6273 97.793 94.6273 104.72C94.6273 113.806 91.4148 121.486 84.9897 127.76C81.1246 131.625 76.7827 134.311 71.9638 135.816C66.6933 137.272 60.0925 138 52.1615 138H25.5827ZM43.1262 71.666H48.6227C55.1482 71.666 59.9168 70.2354 62.9286 67.3742C65.9905 64.4628 67.5215 60.1962 67.5215 54.5742C67.5215 49.1029 65.9654 44.9617 62.8533 42.1507C59.7411 39.2895 55.2235 37.8589 49.3003 37.8589H43.1262V71.666ZM43.1262 121.511H53.9686C61.8995 121.511 67.7223 119.955 71.4368 116.842C75.3521 113.479 77.3097 109.213 77.3097 104.042C77.3097 99.0228 75.4274 94.8063 71.6627 91.393C67.9983 88.0299 61.4478 86.3483 52.0109 86.3483H43.1262V121.511ZM180.99 38.2354H134.383V66.1695H179.634V82.6589H134.383V121.511H180.99V138H116.839V21.746H180.99V38.2354ZM49.0745 244.779L11.1263 178.746H31.3051L57.8839 225.202L84.5379 178.746H104.717L66.618 244.779V295H49.0745V244.779ZM106.524 236.346C106.524 219.982 112.522 205.927 124.519 194.181C136.466 182.435 150.822 176.562 167.587 176.562C184.152 176.562 198.357 182.486 210.204 194.332C222.1 206.178 228.048 220.409 228.048 237.024C228.048 253.739 222.075 267.919 210.128 279.565C198.132 291.26 183.65 297.108 166.684 297.108C151.675 297.108 138.197 291.913 126.251 281.522C113.099 270.027 106.524 254.969 106.524 236.346ZM124.218 236.572C124.218 249.422 128.535 259.988 137.168 268.271C145.752 276.553 155.666 280.694 166.91 280.694C179.107 280.694 189.397 276.478 197.78 268.045C206.163 259.511 210.354 249.121 210.354 236.873C210.354 224.475 206.213 214.084 197.931 205.701C189.699 197.268 179.509 193.052 167.361 193.052C155.264 193.052 145.049 197.268 136.717 205.701C128.384 214.034 124.218 224.324 124.218 236.572ZM267.653 178.746V248.769C267.653 258.758 269.284 266.062 272.547 270.68C277.416 277.356 284.268 280.694 293.102 280.694C301.987 280.694 308.864 277.356 313.733 270.68C316.996 266.213 318.627 258.909 318.627 248.769V178.746H336.171V253.588C336.171 265.836 332.356 275.926 324.726 283.856C316.142 292.691 305.601 297.108 293.102 297.108C280.604 297.108 270.088 292.691 261.554 283.856C253.924 275.926 250.11 265.836 250.11 253.588V178.746H267.653ZM403.483 245.457L439.474 295H418.015L384.811 247.414H381.648V295H364.105V178.746H384.66C400.02 178.746 411.113 181.632 417.94 187.405C425.469 193.83 429.234 202.313 429.234 212.854C429.234 221.086 426.875 228.164 422.156 234.087C417.438 240.01 411.214 243.8 403.483 245.457ZM381.648 232.129H387.22C403.835 232.129 412.142 225.78 412.142 213.08C412.142 201.184 404.061 195.235 387.898 195.235H381.648V232.129ZM25.5827 452V335.746H43.0509C50.8313 335.746 57.0305 336.348 61.6486 337.553C66.3168 338.758 70.2572 340.791 73.4697 343.652C76.7325 346.613 79.3176 350.303 81.225 354.72C83.1826 359.188 84.1615 363.705 84.1615 368.273C84.1615 376.606 80.974 383.658 74.5991 389.431C80.7732 391.539 85.6422 395.228 89.2062 400.499C92.8203 405.719 94.6273 411.793 94.6273 418.72C94.6273 427.806 91.4148 435.486 84.9897 441.76C81.1246 445.625 76.7827 448.311 71.9638 449.816C66.6933 451.272 60.0925 452 52.1615 452H25.5827ZM43.1262 385.666H48.6227C55.1482 385.666 59.9168 384.235 62.9286 381.374C65.9905 378.463 67.5215 374.196 67.5215 368.574C67.5215 363.103 65.9654 358.962 62.8533 356.151C59.7411 353.29 55.2235 351.859 49.3003 351.859H43.1262V385.666ZM43.1262 435.511H53.9686C61.8995 435.511 67.7223 433.955 71.4368 430.842C75.3521 427.479 77.3097 423.213 77.3097 418.042C77.3097 413.023 75.4274 408.806 71.6627 405.393C67.9983 402.03 61.4478 400.348 52.0109 400.348H43.1262V435.511ZM180.99 352.235H134.383V380.169H179.634V396.659H134.383V435.511H180.99V452H116.839V335.746H180.99V352.235ZM269.761 353.064L255.531 361.497C252.87 356.879 250.335 353.867 247.926 352.461C245.416 350.855 242.179 350.052 238.213 350.052C233.344 350.052 229.303 351.432 226.091 354.193C222.878 356.904 221.272 360.317 221.272 364.433C221.272 370.105 225.488 374.673 233.921 378.137L245.517 382.88C254.953 386.695 261.855 391.363 266.222 396.885C270.589 402.356 272.773 409.082 272.773 417.064C272.773 427.755 269.209 436.59 262.081 443.567C254.903 450.595 245.993 454.108 235.352 454.108C225.262 454.108 216.93 451.122 210.354 445.148C203.879 439.175 199.838 430.767 198.232 419.925L216.001 416.009C216.804 422.836 218.21 427.555 220.218 430.165C223.832 435.184 229.102 437.694 236.03 437.694C241.501 437.694 246.044 435.862 249.658 432.198C253.272 428.533 255.079 423.89 255.079 418.268C255.079 416.009 254.753 413.951 254.1 412.094C253.498 410.187 252.519 408.455 251.164 406.899C249.859 405.293 248.152 403.812 246.044 402.457C243.935 401.051 241.426 399.721 238.514 398.466L227.295 393.798C211.383 387.071 203.427 377.233 203.427 364.282C203.427 355.548 206.765 348.245 213.441 342.372C220.117 336.449 228.425 333.487 238.364 333.487C251.766 333.487 262.232 340.013 269.761 353.064ZM328.265 352.235V452H310.721V352.235H283.992V335.746H354.919V352.235H328.265ZM91.3144 510.064L77.0838 518.497C74.4234 513.879 71.8885 510.867 69.4791 509.461C66.9693 507.855 63.7317 507.052 59.7662 507.052C54.8972 507.052 50.8564 508.432 47.6439 511.193C44.4313 513.904 42.825 517.317 42.825 521.433C42.825 527.105 47.0415 531.673 55.4744 535.137L67.0697 539.88C76.5066 543.695 83.4085 548.363 87.7756 553.885C92.1426 559.356 94.3262 566.082 94.3262 574.064C94.3262 584.755 90.7622 593.59 83.6344 600.567C76.4564 607.595 67.5466 611.108 56.905 611.108C46.8156 611.108 38.4831 608.122 31.9074 602.148C25.4321 596.175 21.3913 587.767 19.7851 576.925L37.5545 573.009C38.3576 579.836 39.7631 584.555 41.7709 587.165C45.385 592.184 50.6556 594.694 57.5827 594.694C63.054 594.694 67.5968 592.862 71.2109 589.198C74.825 585.533 76.6321 580.89 76.6321 575.268C76.6321 573.009 76.3058 570.951 75.6532 569.094C75.0509 567.187 74.0721 565.455 72.7168 563.899C71.4117 562.293 69.705 560.812 67.5968 559.457C65.4885 558.051 62.9787 556.721 60.0674 555.466L48.8486 550.798C32.9364 544.071 24.9804 534.233 24.9804 521.282C24.9804 512.548 28.3184 505.245 34.9945 499.372C41.6705 493.449 49.978 490.487 59.9168 490.487C73.3191 490.487 83.785 497.013 91.3144 510.064ZM179.634 509.235H133.027V537.169H178.279V553.659H133.027V592.511H179.634V609H115.484V492.746H179.634V509.235ZM220.218 492.746V592.511H254.401V609H202.674V492.746H220.218ZM329.093 509.235H288.585V537.169H327.662V553.659H288.585V609H271.041V492.746H329.093V509.235Z" fill="url(#paint0_radial_1_1602)" shape-rendering="crispEdges"/>
</g>
<defs>
<filter id="filter0_d_1_1602" x="-6.45778" y="0.394032" width="445.932" height="610.714" filterUnits="userSpaceOnUse" color-interpolation-filters="sRGB">
<feFlood flood-opacity="0" result="BackgroundImageFix"/>
<feColorMatrix in="SourceAlpha" type="matrix" values="0 0 0 0 0 0 0 0 0 0 0 0 0 0 0 0 0 0 127 0" result="hardAlpha"/>
<feOffset dx="-12.56" dy="-16.328"/>
<feGaussianBlur stdDeviation="2.512"/>
<feComposite in2="hardAlpha" operator="out"/>
<feColorMatrix type="matrix" values="0 0 0 0 0 0 0 0 0 0 0 0 0 0 0 0 0 0 0.15 0"/>
<feBlend mode="normal" in2="BackgroundImageFix" result="effect1_dropShadow_1_1602"/>
<feBlend mode="normal" in="SourceGraphic" in2="effect1_dropShadow_1_1602" result="shape"/>
</filter>
<radialGradient id="paint0_radial_1_1602" cx="0" cy="0" r="1" gradientUnits="userSpaceOnUse" gradientTransform="translate(273.935 251.456) rotate(118.235) scale(445.51 414.163)">
<stop stop-color="#979797"/>
<stop offset="1" stop-color="#373737" stop-opacity="0"/>
</radialGradient>
</defs>
</svg>
