<svg width="19" height="21" viewBox="0 0 19 21" fill="none" xmlns="http://www.w3.org/2000/svg">
<path d="M6.10938 1.05908L5.82812 1.61768H2.07812C1.38672 1.61768 0.828125 2.17627 0.828125 2.86768C0.828125 3.55908 1.38672 4.11768 2.07812 4.11768H17.0781C17.7695 4.11768 18.3281 3.55908 18.3281 2.86768C18.3281 2.17627 17.7695 1.61768 17.0781 1.61768H13.3281L13.0469 1.05908C12.8359 0.633301 12.4023 0.367676 11.9297 0.367676H7.22656C6.75391 0.367676 6.32031 0.633301 6.10938 1.05908ZM17.0781 5.36768H2.07812L2.90625 18.6099C2.96875 19.5981 3.78906 20.3677 4.77734 20.3677H14.3789C15.3672 20.3677 16.1875 19.5981 16.25 18.6099L17.0781 5.36768Z" fill="#F39200"/>
</svg>
