<svg width="21" height="21" viewBox="0 0 21 21" fill="none" xmlns="http://www.w3.org/2000/svg">
<path d="M17.0498 8.97315L16.6084 9.41455L15.7256 10.2974L7.7178 18.3052C7.45999 18.563 7.13968 18.7544 6.78811 18.856L1.7803 20.3286C1.45218 20.4263 1.09671 20.3364 0.854521 20.0903C0.612333 19.8442 0.518583 19.4966 0.616239 19.1646L2.0889 14.1606C2.19046 13.8091 2.38186 13.4888 2.63968 13.231L10.6475 5.22315L11.5303 4.34033L11.9717 3.89893L13.2959 5.22315L15.7217 7.64893L17.0459 8.97315H17.0498ZM4.32718 14.1919L3.9639 14.5552C3.92874 14.5903 3.9014 14.6372 3.88577 14.688L2.89749 18.0474L6.25686 17.0591C6.30765 17.0435 6.35452 17.0161 6.38968 16.981L6.75296 16.6177H4.95218C4.60843 16.6177 4.32718 16.3364 4.32718 15.9927V14.1919ZM18.2842 1.12158L19.8233 2.66064C20.7998 3.63721 20.7998 5.21924 19.8233 6.1958L19.2569 6.76221L18.3741 7.64502L17.9326 8.08643L16.6084 6.76221L14.1826 4.33643L12.8545 3.01221L13.2959 2.5708L14.1787 1.68799L14.7451 1.12158C15.7217 0.14502 17.3037 0.14502 18.2803 1.12158H18.2842Z" fill="#F39200"/>
</svg>
