<svg width="24" height="19" viewBox="0 0 24 19" fill="none" xmlns="http://www.w3.org/2000/svg">
<path d="M2.85463 0.492676C1.43633 0.492676 0.283203 1.6458 0.283203 3.0641V15.9212C0.283203 17.3396 1.43633 18.4927 2.85463 18.4927H20.8546C22.2729 18.4927 23.4261 17.3396 23.4261 15.9212V3.0641C23.4261 1.6458 22.2729 0.492676 20.8546 0.492676H2.85463ZM6.06892 10.7784H8.64035C10.4162 10.7784 11.8546 12.2168 11.8546 13.9927C11.8546 14.3462 11.5653 14.6355 11.2118 14.6355H3.49749C3.14392 14.6355 2.85463 14.3462 2.85463 13.9927C2.85463 12.2168 4.29302 10.7784 6.06892 10.7784ZM9.92606 6.92125C9.92606 8.33955 8.77293 9.49268 7.35463 9.49268C5.93633 9.49268 4.7832 8.33955 4.7832 6.92125C4.7832 5.50294 5.93633 4.34982 7.35463 4.34982C8.77293 4.34982 9.92606 5.50294 9.92606 6.92125ZM15.0689 5.63553H20.2118C20.5653 5.63553 20.8546 5.92482 20.8546 6.27839C20.8546 6.63196 20.5653 6.92125 20.2118 6.92125H15.0689C14.7153 6.92125 14.4261 6.63196 14.4261 6.27839C14.4261 5.92482 14.7153 5.63553 15.0689 5.63553ZM15.0689 8.20696H20.2118C20.5653 8.20696 20.8546 8.49625 20.8546 8.84982C20.8546 9.20339 20.5653 9.49268 20.2118 9.49268H15.0689C14.7153 9.49268 14.4261 9.20339 14.4261 8.84982C14.4261 8.49625 14.7153 8.20696 15.0689 8.20696ZM15.0689 10.7784H20.2118C20.5653 10.7784 20.8546 11.0677 20.8546 11.4212C20.8546 11.7748 20.5653 12.0641 20.2118 12.0641H15.0689C14.7153 12.0641 14.4261 11.7748 14.4261 11.4212C14.4261 11.0677 14.7153 10.7784 15.0689 10.7784Z" fill="#F39200"/>
</svg>
