<svg width="23" height="19" viewBox="0 0 23 19" fill="none" xmlns="http://www.w3.org/2000/svg">
<path d="M1.7207 0.492676C0.789062 0.492676 0.0332031 1.24854 0.0332031 2.18018V16.8052C0.0332031 17.7368 0.789062 18.4927 1.7207 18.4927H5.0957V15.6802C5.0957 14.7485 5.85156 13.9927 6.7832 13.9927C7.71484 13.9927 8.4707 14.7485 8.4707 15.6802V18.4927H11.6312C11.4098 18.1341 11.2832 17.7122 11.2832 17.2587C11.2832 15.6099 12.1902 14.172 13.5332 13.4196V10.0481V2.18018C13.5332 1.24854 12.7773 0.492676 11.8457 0.492676H1.7207ZM2.2832 8.93018C2.2832 8.6208 2.53633 8.36768 2.8457 8.36768H3.9707C4.28008 8.36768 4.5332 8.6208 4.5332 8.93018V10.0552C4.5332 10.3646 4.28008 10.6177 3.9707 10.6177H2.8457C2.53633 10.6177 2.2832 10.3646 2.2832 10.0552V8.93018ZM6.2207 8.36768H7.3457C7.65508 8.36768 7.9082 8.6208 7.9082 8.93018V10.0552C7.9082 10.3646 7.65508 10.6177 7.3457 10.6177H6.2207C5.91133 10.6177 5.6582 10.3646 5.6582 10.0552V8.93018C5.6582 8.6208 5.91133 8.36768 6.2207 8.36768ZM9.0332 8.93018C9.0332 8.6208 9.28633 8.36768 9.5957 8.36768H10.7207C11.0301 8.36768 11.2832 8.6208 11.2832 8.93018V10.0552C11.2832 10.3646 11.0301 10.6177 10.7207 10.6177H9.5957C9.28633 10.6177 9.0332 10.3646 9.0332 10.0552V8.93018ZM2.8457 3.86768H3.9707C4.28008 3.86768 4.5332 4.1208 4.5332 4.43018V5.55518C4.5332 5.86455 4.28008 6.11768 3.9707 6.11768H2.8457C2.53633 6.11768 2.2832 5.86455 2.2832 5.55518V4.43018C2.2832 4.1208 2.53633 3.86768 2.8457 3.86768ZM5.6582 4.43018C5.6582 4.1208 5.91133 3.86768 6.2207 3.86768H7.3457C7.65508 3.86768 7.9082 4.1208 7.9082 4.43018V5.55518C7.9082 5.86455 7.65508 6.11768 7.3457 6.11768H6.2207C5.91133 6.11768 5.6582 5.86455 5.6582 5.55518V4.43018ZM9.5957 3.86768H10.7207C11.0301 3.86768 11.2832 4.1208 11.2832 4.43018V5.55518C11.2832 5.86455 11.0301 6.11768 10.7207 6.11768H9.5957C9.28633 6.11768 9.0332 5.86455 9.0332 5.55518V4.43018C9.0332 4.1208 9.28633 3.86768 9.5957 3.86768ZM20.2832 10.0552C20.2832 8.50127 19.0246 7.24268 17.4707 7.24268C15.9168 7.24268 14.6582 8.50127 14.6582 10.0552C14.6582 11.6091 15.9168 12.8677 17.4707 12.8677C19.0246 12.8677 20.2832 11.6091 20.2832 10.0552ZM12.4082 17.2657C12.4082 17.9442 12.9566 18.4927 13.6352 18.4927H21.3062C21.9848 18.4927 22.5332 17.9442 22.5332 17.2657C22.5332 15.4587 21.0672 13.9927 19.2602 13.9927H15.6813C13.8742 13.9927 12.4082 15.4587 12.4082 17.2657Z" fill="#F39200"/>
</svg>
