<svg width="16" height="19" viewBox="0 0 16 19" fill="none" xmlns="http://www.w3.org/2000/svg">
<path d="M4.58008 0.492676C5.20234 0.492676 5.70508 0.99541 5.70508 1.61768V2.74268H10.2051V1.61768C10.2051 0.99541 10.7078 0.492676 11.3301 0.492676C11.9523 0.492676 12.4551 0.99541 12.4551 1.61768V2.74268H14.1426C15.0742 2.74268 15.8301 3.49854 15.8301 4.43018V6.11768H0.0800781V4.43018C0.0800781 3.49854 0.835938 2.74268 1.76758 2.74268H3.45508V1.61768C3.45508 0.99541 3.95781 0.492676 4.58008 0.492676ZM0.0800781 7.24268H15.8301V16.8052C15.8301 17.7368 15.0742 18.4927 14.1426 18.4927H1.76758C0.835938 18.4927 0.0800781 17.7368 0.0800781 16.8052V7.24268ZM2.89258 9.49268C2.5832 9.49268 2.33008 9.7458 2.33008 10.0552V13.4302C2.33008 13.7396 2.5832 13.9927 2.89258 13.9927H6.26758C6.57695 13.9927 6.83008 13.7396 6.83008 13.4302V10.0552C6.83008 9.7458 6.57695 9.49268 6.26758 9.49268H2.89258Z" fill="#F39200"/>
</svg>
