<svg width="17" height="19" viewBox="0 0 17 19" fill="none" xmlns="http://www.w3.org/2000/svg">
<path d="M5.22852 0.242676C5.85078 0.242676 6.35352 0.74541 6.35352 1.36768V2.49268H10.8535V1.36768C10.8535 0.74541 11.3562 0.242676 11.9785 0.242676C12.6008 0.242676 13.1035 0.74541 13.1035 1.36768V2.49268H14.791C15.7227 2.49268 16.4785 3.24854 16.4785 4.18018V5.86768H0.728516V4.18018C0.728516 3.24854 1.48438 2.49268 2.41602 2.49268H4.10352V1.36768C4.10352 0.74541 4.60625 0.242676 5.22852 0.242676ZM0.728516 6.99268H16.4785V16.5552C16.4785 17.4868 15.7227 18.2427 14.791 18.2427H2.41602C1.48438 18.2427 0.728516 17.4868 0.728516 16.5552V6.99268ZM3.54102 9.24268C3.23164 9.24268 2.97852 9.4958 2.97852 9.80518V13.1802C2.97852 13.4896 3.23164 13.7427 3.54102 13.7427H6.91602C7.22539 13.7427 7.47852 13.4896 7.47852 13.1802V9.80518C7.47852 9.4958 7.22539 9.24268 6.91602 9.24268H3.54102Z" fill="#F39200"/>
</svg>
