<svg width="82" height="97" viewBox="0 0 82 97" fill="none" xmlns="http://www.w3.org/2000/svg">
<path d="M19.9012 69.6V70.6H20.9012V69.6H19.9012ZM19.9012 61.9H20.9012V60.9H19.9012V61.9ZM15.8012 61.9H14.8012V62.9H15.8012V61.9ZM15.8012 18.5V17.5H14.8012V18.5H15.8012ZM19.9012 18.5V19.5H20.9012V18.5H19.9012ZM19.9012 10.8H20.9012V9.8H19.9012V10.8ZM5.90117 10.8V9.8H4.90117V10.8H5.90117ZM5.90117 92.5H4.90117V93.5H5.90117V92.5ZM15.8012 92.5V93.5H16.8012V92.5H15.8012ZM15.8012 69.6V68.6H14.8012V69.6H15.8012ZM20.9012 69.6V61.9H18.9012V69.6H20.9012ZM19.9012 60.9H15.8012V62.9H19.9012V60.9ZM16.8012 61.9V18.5H14.8012V61.9H16.8012ZM15.8012 19.5H19.9012V17.5H15.8012V19.5ZM20.9012 18.5V10.8H18.9012V18.5H20.9012ZM19.9012 9.8H5.90117V11.8H19.9012V9.8ZM4.90117 10.8V92.5H6.90117V10.8H4.90117ZM5.90117 93.5H15.8012V91.5H5.90117V93.5ZM16.8012 92.5V69.6H14.8012V92.5H16.8012ZM15.8012 70.6H19.9012V68.6H15.8012V70.6ZM49.3887 80V81H50.3887V80H49.3887ZM27.5887 83H26.5887V84H27.5887V83ZM37.4887 83V84H38.4887V83H37.4887ZM37.4887 64.9V63.9H36.4887V64.9H37.4887ZM39.4887 64.9H40.4887V63.9H39.4887V64.9ZM39.4887 80H38.4887V81H39.4887V80ZM39.4887 57.2V58.2H40.4887V57.2H39.4887ZM37.4887 57.2H36.4887V58.2H37.4887V57.2ZM50.3887 80V19.3H48.3887V80H50.3887ZM50.3887 19.3C50.3887 15.1259 48.8469 12.242 46.4845 10.4313C44.1656 8.65392 41.1742 8 38.3887 8V10C40.9032 10 43.4118 10.5961 45.2678 12.0187C47.0805 13.408 48.3887 15.6741 48.3887 19.3H50.3887ZM38.3887 8C35.438 8 32.4741 8.56457 30.2331 10.3264C27.9458 12.1246 26.5887 15.0265 26.5887 19.3H28.5887C28.5887 15.4735 29.7815 13.2254 31.4692 11.8986C33.2032 10.5354 35.6393 10 38.3887 10V8ZM26.5887 19.3V83H28.5887V19.3H26.5887ZM27.5887 84H37.4887V82H27.5887V84ZM38.4887 83V64.9H36.4887V83H38.4887ZM37.4887 65.9H39.4887V63.9H37.4887V65.9ZM38.4887 64.9V80H40.4887V64.9H38.4887ZM39.4887 81H49.3887V79H39.4887V81ZM39.4887 56.2H37.4887V58.2H39.4887V56.2ZM38.4887 57.2V17.3H36.4887V57.2H38.4887ZM38.4887 17.3C38.4887 17.2388 38.4951 17.1901 38.5033 17.1569C38.5115 17.1236 38.5172 17.1228 38.5056 17.1392C38.4994 17.1481 38.4893 17.1601 38.4751 17.1724C38.4606 17.1849 38.4459 17.1942 38.4336 17.2002C38.4067 17.2133 38.4148 17.2 38.4887 17.2V15.2C37.8006 15.2 37.2294 15.4791 36.8717 15.9858C36.5554 16.4339 36.4887 16.9441 36.4887 17.3H38.4887ZM38.4887 17.2C38.5626 17.2 38.5707 17.2133 38.5438 17.2002C38.5314 17.1942 38.5167 17.1849 38.5023 17.1724C38.488 17.1601 38.478 17.1481 38.4717 17.1392C38.4601 17.1228 38.4659 17.1236 38.4741 17.1569C38.4823 17.1901 38.4887 17.2388 38.4887 17.3H40.4887C40.4887 16.9441 40.4219 16.4339 40.1056 15.9858C39.748 15.4791 39.1767 15.2 38.4887 15.2V17.2ZM38.4887 17.3V57.2H40.4887V17.3H38.4887ZM67.0652 84.5L68.0477 84.3133L67.9055 83.5653L67.1466 83.5033L67.0652 84.5ZM68.9652 94.5L67.9828 94.6867L68.1373 95.5H68.9652V94.5ZM79.1652 94.5V95.5H80.6983L80.0804 94.097L79.1652 94.5ZM74.3652 83.6L74.0905 82.6385L72.9879 82.9535L73.45 84.003L74.3652 83.6ZM80.8652 74.2V16.3H78.8652V74.2H80.8652ZM80.8652 16.3C80.8652 12.1259 79.3234 9.24199 76.9611 7.43131C74.6421 5.65391 71.6507 4.99999 68.8652 4.99999V6.99999C71.3797 6.99999 73.8884 7.59608 75.7444 9.01868C77.557 10.408 78.8652 12.6741 78.8652 16.3H80.8652ZM68.8652 4.99999C65.9146 4.99999 62.9487 5.56453 60.7067 7.34125C58.4196 9.15366 57.0652 12.0807 57.0652 16.4H59.0652C59.0652 12.5193 60.2609 10.2463 61.9488 8.90874C63.6818 7.53546 66.1158 6.99999 68.8652 6.99999V4.99999ZM57.0652 16.4V74.2H59.0652V16.4H57.0652ZM57.0652 74.2C57.0652 78.0413 58.1493 80.8019 60.0261 82.65C61.8874 84.483 64.3943 85.2853 66.9839 85.4967L67.1466 83.5033C64.8361 83.3147 62.843 82.617 61.4294 81.225C60.0312 79.8481 59.0652 77.6587 59.0652 74.2H57.0652ZM66.0828 84.6867L67.9828 94.6867L69.9477 94.3133L68.0477 84.3133L66.0828 84.6867ZM68.9652 95.5H79.1652V93.5H68.9652V95.5ZM80.0804 94.097L75.2804 83.197L73.45 84.003L78.25 94.903L80.0804 94.097ZM74.64 84.5615C78.7502 83.3872 80.8652 79.2249 80.8652 74.2H78.8652C78.8652 78.7751 76.9803 81.8128 74.0905 82.6385L74.64 84.5615ZM68.9652 76.3C68.9652 76.3274 68.9608 76.3551 68.9537 76.3772C68.9468 76.3986 68.9408 76.4049 68.9433 76.4018C68.948 76.3961 68.9559 76.3903 68.96 76.3884C68.9634 76.3869 68.9383 76.4 68.8652 76.4V78.4C69.5439 78.4 70.1098 78.1315 70.4872 77.6732C70.8387 77.2464 70.9652 76.7317 70.9652 76.3H68.9652ZM68.8652 76.4C68.7895 76.4 68.8006 76.3861 68.8524 76.4133C68.8776 76.4265 68.904 76.4453 68.9282 76.469C68.9519 76.4922 68.9677 76.5144 68.9772 76.5305C68.9939 76.559 68.9872 76.5616 68.9788 76.5125C68.9704 76.4643 68.9652 76.3958 68.9652 76.3H66.9652C66.9652 76.5749 66.9832 77.0853 67.2533 77.5445C67.5848 78.1081 68.1672 78.4 68.8652 78.4V76.4ZM68.9652 76.3V14.3H66.9652V76.3H68.9652ZM68.9652 14.3C68.9652 14.2388 68.9716 14.1901 68.9798 14.1569C68.988 14.1236 68.9938 14.1228 68.9822 14.1392C68.9759 14.1481 68.9659 14.1601 68.9516 14.1724C68.9372 14.1849 68.9225 14.1942 68.9101 14.2002C68.8832 14.2133 68.8913 14.2 68.9652 14.2V12.2C68.2772 12.2 67.7059 12.4791 67.3483 12.9858C67.032 13.4339 66.9652 13.9441 66.9652 14.3H68.9652ZM68.9652 14.2C69.0391 14.2 69.0472 14.2133 69.0204 14.2002C69.008 14.1942 68.9933 14.1849 68.9788 14.1724C68.9646 14.1601 68.9546 14.1481 68.9483 14.1392C68.9367 14.1228 68.9424 14.1236 68.9506 14.1569C68.9588 14.1901 68.9652 14.2388 68.9652 14.3H70.9652C70.9652 13.9441 70.8985 13.4339 70.5822 12.9858C70.2245 12.4791 69.6533 12.2 68.9652 12.2V14.2ZM68.9652 14.3V76.3H70.9652V14.3H68.9652Z" fill="#F39200"/>
<path d="M17.9012 71.6V63.9H13.8012V20.5H17.9012V12.8H3.90117V94.5H13.8012V71.6H17.9012ZM47.3887 82V21.3C47.3887 13.5 41.6887 11 36.3887 11C30.6887 11 25.5887 13.2 25.5887 21.3V85H35.4887V66.9H37.4887V82H47.3887ZM37.4887 59.2H35.4887V19.3C35.4887 18.8 35.6887 18.2 36.4887 18.2C37.2887 18.2 37.4887 18.8 37.4887 19.3V59.2ZM77.8652 76.2V18.3C77.8652 10.5 72.1652 7.99999 66.8652 7.99999C61.1652 7.99999 56.0652 10.2 56.0652 18.4V76.2C56.0652 83.5 60.1652 86.1 65.0652 86.5L66.9652 96.5H77.1652L72.3652 85.6C75.8652 84.6 77.8652 81 77.8652 76.2ZM67.9652 78.3C67.9652 78.8 67.6652 79.4 66.8652 79.4C66.0652 79.4 65.9652 78.8 65.9652 78.3V16.3C65.9652 15.8 66.1652 15.2 66.9652 15.2C67.7652 15.2 67.9652 15.8 67.9652 16.3V78.3Z" fill="white"/>
</svg>
