<svg width="19" height="19" viewBox="0 0 19 19" fill="none" xmlns="http://www.w3.org/2000/svg">
<path d="M9.93164 18.6177C4.96055 18.6177 0.931641 14.5888 0.931641 9.61768C0.931641 4.64658 4.96055 0.617676 9.93164 0.617676C14.9027 0.617676 18.9316 4.64658 18.9316 9.61768C18.9316 14.5888 14.9027 18.6177 9.93164 18.6177ZM9.08789 4.83643V9.61768C9.08789 9.89893 9.22852 10.1626 9.46406 10.3208L12.8391 12.5708C13.2258 12.831 13.7496 12.7255 14.0098 12.3353C14.2699 11.945 14.1645 11.4247 13.7742 11.1646L10.7754 9.16768V4.83643C10.7754 4.36885 10.3992 3.99268 9.93164 3.99268C9.46406 3.99268 9.08789 4.36885 9.08789 4.83643Z" fill="#F39200"/>
</svg>
