<svg width="113" height="113" viewBox="0 0 113 113" fill="none" xmlns="http://www.w3.org/2000/svg">
<path d="M84.6247 23.8443V14.2217H28.6247V23.8443H9.95801V37.555C9.95801 49.3383 18.7733 59.0123 30.1367 60.571C31.7643 65.3441 34.6512 69.5888 38.4922 72.8564C42.3333 76.1241 46.9858 78.2934 51.958 79.135V84.2217C51.958 86.697 50.9747 89.071 49.2243 90.8213C47.474 92.5717 45.1 93.555 42.6247 93.555H37.958V102.888H75.2913V93.555H70.6247C68.1493 93.555 65.7754 92.5717 64.025 90.8213C62.2747 89.071 61.2913 86.697 61.2913 84.2217V79.135C66.2636 78.2934 70.9161 76.1241 74.7571 72.8564C78.5981 69.5888 81.485 65.3441 83.1127 60.571C94.476 59.0123 103.291 49.3383 103.291 37.555V23.8443H84.6247ZM19.2913 37.555V33.1777H28.6247V50.7523C25.897 49.7851 23.5355 47.9973 21.8644 45.6343C20.1933 43.2714 19.2945 40.4491 19.2913 37.555ZM93.958 37.555C93.9545 40.4496 93.0556 43.2723 91.3846 45.6359C89.7136 47.9995 87.3524 49.7883 84.6247 50.757V33.1777H93.958V37.555Z" fill="#F39200"/>
<path d="M59.2992 62.6617V20.3257H52.6352V24.4697H53.9232V62.6617H59.2992Z" fill="white"/>
</svg>
