<svg width="113" height="113" viewBox="0 0 113 113" fill="none" xmlns="http://www.w3.org/2000/svg">
<path d="M84.3747 23.9979V14.3752H28.3747V23.9979H9.70801V37.7086C9.70801 49.4919 18.5233 59.1659 29.8867 60.7246C31.5143 65.4976 34.4012 69.7423 38.2422 73.01C42.0833 76.2777 46.7358 78.447 51.708 79.2886V84.3752C51.708 86.8506 50.7247 89.2246 48.9743 90.9749C47.224 92.7252 44.85 93.7086 42.3747 93.7086H37.708V103.042H75.0413V93.7086H70.3747C67.8993 93.7086 65.5254 92.7252 63.775 90.9749C62.0247 89.2246 61.0413 86.8506 61.0413 84.3752V79.2886C66.0136 78.447 70.6661 76.2777 74.5071 73.01C78.3481 69.7423 81.235 65.4976 82.8627 60.7246C94.226 59.1659 103.041 49.4919 103.041 37.7086V23.9979H84.3747ZM19.0413 37.7086V33.3312H28.3747V50.9059C25.647 49.9386 23.2855 48.1508 21.6144 45.7879C19.9433 43.4249 19.0445 40.6027 19.0413 37.7086ZM93.708 37.7086C93.7045 40.6032 92.8056 43.4258 91.1346 45.7894C89.4636 48.153 87.1024 49.9419 84.3747 50.9106V33.3312H93.708V37.7086Z" fill="#F39200"/>
<path d="M62.9346 65.2152V61.0152H56.2706V53.6232C56.2706 52.6712 56.2146 52.1672 57.2786 51.7192L60.3026 50.4312C62.1506 49.6472 62.9346 48.4152 62.9346 46.6792V23.9432C62.9346 19.5752 59.7426 18.1752 56.7746 18.1752C53.5826 18.1752 50.7266 19.4072 50.7266 23.9992V43.2072H56.2706V22.8792C56.2706 22.5432 56.3826 22.2072 56.8306 22.2072C57.2786 22.2072 57.3906 22.5432 57.3906 22.8232V45.1112C57.3906 46.2312 57.0546 46.7352 55.9346 47.1272L53.4146 48.0232C51.5666 48.6952 50.7266 49.9832 50.7266 51.8312V65.2152H62.9346Z" fill="white"/>
</svg>
