<svg width="112" height="112" viewBox="0 0 112 112" fill="none" xmlns="http://www.w3.org/2000/svg">
<path d="M83.9997 23.6227V14H27.9997V23.6227H9.33301V37.3333C9.33301 49.1167 18.1483 58.7907 29.5117 60.3493C31.1393 65.1224 34.0262 69.3671 37.8672 72.6348C41.7083 75.9024 46.3608 78.0717 51.333 78.9133V84C51.333 86.4754 50.3497 88.8493 48.5993 90.5997C46.849 92.35 44.475 93.3333 41.9997 93.3333H37.333V102.667H74.6663V93.3333H69.9997C67.5243 93.3333 65.1504 92.35 63.4 90.5997C61.6497 88.8493 60.6663 86.4754 60.6663 84V78.9133C65.6386 78.0717 70.2911 75.9024 74.1321 72.6348C77.9731 69.3671 80.86 65.1224 82.4877 60.3493C93.851 58.7907 102.666 49.1167 102.666 37.3333V23.6227H83.9997ZM18.6663 37.3333V32.956H27.9997V50.5307C25.272 49.5634 22.9105 47.7756 21.2394 45.4126C19.5683 43.0497 18.6695 40.2275 18.6663 37.3333ZM93.333 37.3333C93.3295 40.2279 92.4306 43.0506 90.7596 45.4142C89.0886 47.7778 86.7274 49.5666 83.9997 50.5353V32.956H93.333V37.3333Z" fill="#F39200"/>
<path d="M62.5596 55.832V48.44C62.5596 46.648 61.3836 45.528 60.4876 44.912C61.3836 44.408 62.5596 43.568 62.5596 41.944V24.808C62.5596 20.384 59.3676 19.04 56.3996 19.04C53.2076 19.04 50.3516 20.272 50.3516 24.864V40.208H55.8956V23.688C55.8956 23.408 56.0076 23.072 56.4556 23.072C56.9036 23.072 57.0716 23.408 57.0716 23.688V43.344C57.0716 44.184 56.7916 44.632 56.1196 44.632H53.6556V48.944H56.1196C56.5676 48.944 57.0716 49.336 57.0716 50.008V56.84C57.0716 57.456 56.9036 57.624 56.4556 57.624C55.9516 57.624 55.8396 57.4 55.8396 56.784V53.256H50.3516V55.832C50.3516 60.424 53.2636 61.656 56.4556 61.656C59.3676 61.656 62.5596 60.256 62.5596 55.832Z" fill="white"/>
</svg>
