<svg width="24" height="19" viewBox="0 0 24 19" fill="none" xmlns="http://www.w3.org/2000/svg">
<path d="M1.28152 0.492676H6.90652C7.13943 0.492676 7.35915 0.587598 7.49099 0.742285L11.055 5.01728C8.87966 5.16143 6.9241 5.91728 5.44753 7.06689L0.697045 1.36807C0.552025 1.1958 0.538842 0.974316 0.661889 0.791504C0.784935 0.608691 1.02224 0.492676 1.28152 0.492676ZM22.9597 1.36807L18.2093 7.07041C16.7371 5.9208 14.7771 5.16494 12.6018 5.0208L16.1658 0.742285C16.2976 0.584082 16.5174 0.492676 16.7503 0.492676H22.3753C22.6345 0.492676 22.8718 0.605176 22.9949 0.791504C23.1179 0.977832 23.1048 1.1958 22.9597 1.36807ZM19.5628 12.3052C19.5628 15.7224 16.0999 18.4927 11.8284 18.4927C7.55691 18.4927 4.09402 15.7224 4.09402 12.3052C4.09402 8.88799 7.55691 6.11768 11.8284 6.11768C16.0999 6.11768 19.5628 8.88799 19.5628 12.3052ZM12.1975 8.96885C12.0481 8.72275 11.6131 8.72275 11.4593 8.96885L10.4749 10.5649C10.4134 10.6634 10.2991 10.7302 10.1673 10.7442L7.96121 11.0009C7.62283 11.0396 7.49099 11.37 7.73269 11.5634L9.3279 12.8079C9.42458 12.8853 9.46853 12.9907 9.44656 13.0997L9.06863 14.854C9.0115 15.1212 9.36306 15.3286 9.66628 15.2021L11.635 14.3724C11.7537 14.3231 11.8987 14.3231 12.0174 14.3724L13.9861 15.2021C14.2893 15.3286 14.6409 15.1247 14.5838 14.854L14.2058 13.0997C14.1839 12.9942 14.2278 12.8853 14.3245 12.8079L15.9197 11.5634C16.1658 11.3735 16.0296 11.0431 15.6912 11.0009L13.4895 10.7442C13.3577 10.7302 13.239 10.6599 13.1819 10.5649L12.1975 8.96885Z" fill="#F39200"/>
</svg>
