<svg width="19" height="19" viewBox="0 0 19 19" fill="none" xmlns="http://www.w3.org/2000/svg">
<path d="M16.8678 1.29618L18.253 2.68134C19.1319 3.56024 19.1319 4.98407 18.253 5.86298L16.4213 7.69462L16.3862 7.65946L15.8237 7.09696L12.4487 3.72196L11.851 3.1243L13.6827 1.29266C14.5616 0.413757 15.9854 0.413757 16.8643 1.29266L16.8678 1.29618ZM9.40414 4.65712C9.07367 4.32665 8.53929 4.32665 8.21234 4.65712L4.62289 8.24657C4.29242 8.57704 3.75804 8.57704 3.43109 8.24657C3.10414 7.9161 3.10062 7.38173 3.43109 7.05477L7.01703 3.46532C8.00492 2.47743 9.60804 2.47743 10.5959 3.46532L11.0565 3.92587L11.6541 4.52352L15.0291 7.89852L15.5916 8.46102L15.6268 8.49618L15.0291 9.09384L8.99984 15.1196C7.31234 16.8071 5.16078 17.9602 2.81937 18.4278L1.94046 18.6036C1.66273 18.6599 1.37796 18.572 1.17757 18.3716C0.977182 18.1712 0.892807 17.8864 0.945541 17.6087L1.12132 16.7298C1.5889 14.3884 2.74203 12.2368 4.42953 10.5493L9.86468 5.11766L9.40414 4.65712Z" fill="#F39200"/>
</svg>
