<svg width="24" height="19" viewBox="0 0 24 19" fill="none" xmlns="http://www.w3.org/2000/svg">
<path d="M7.82471 1.35758C7.48633 0.703674 6.59424 0.355627 5.7417 0.541955L1.87451 1.3857C1.10986 1.55445 0.578125 2.10992 0.578125 2.74274C0.578125 11.4404 9.39355 18.4927 20.2656 18.4927C21.0566 18.4927 21.751 18.0673 21.9619 17.4556L23.0166 14.3619C23.2495 13.6798 22.8145 12.9662 21.9971 12.6955L17.7783 11.2892C17.062 11.0502 16.2314 11.2154 15.7437 11.697L13.9683 13.4302C10.8745 12.2595 8.36963 10.2556 6.90625 7.78063L9.07275 6.36383C9.6748 5.97008 9.88135 5.30914 9.58252 4.7361L7.82471 1.3611V1.35758Z" fill="#F39200"/>
</svg>
