<svg width="15" height="19" viewBox="0 0 15 19" fill="none" xmlns="http://www.w3.org/2000/svg">
<path d="M8.13301 18.1677C9.93652 15.9106 14.0498 10.4403 14.0498 7.36768C14.0498 3.64111 11.0264 0.617676 7.2998 0.617676C3.57324 0.617676 0.549805 3.64111 0.549805 7.36768C0.549805 10.4403 4.66309 15.9106 6.4666 18.1677C6.89902 18.7056 7.70059 18.7056 8.13301 18.1677ZM7.2998 9.61768C6.05879 9.61768 5.0498 8.60869 5.0498 7.36768C5.0498 6.12666 6.05879 5.11768 7.2998 5.11768C8.54082 5.11768 9.5498 6.12666 9.5498 7.36768C9.5498 8.60869 8.54082 9.61768 7.2998 9.61768Z" fill="#F39200"/>
</svg>
