<svg width="193" height="102" viewBox="0 0 193 102" fill="none" xmlns="http://www.w3.org/2000/svg">
<path d="M22.0215 59.8691L22.3632 58.9293L22.3565 58.9269L22.0215 59.8691ZM17.5215 58.2691L17.8565 57.3269L17.8518 57.3252L17.5215 58.2691ZM16.9215 51.7691H15.9215V52.7691H16.9215V51.7691ZM26.8215 51.7691V52.7691H27.8215V51.7691H26.8215ZM9.72148 64.9691L9.35496 65.8995L9.36453 65.9033L9.37417 65.9068L9.72148 64.9691ZM15.1215 66.9691L15.5095 66.0475L15.4893 66.039L15.4688 66.0313L15.1215 66.9691ZM14.9215 73.2691H15.9215V72.2691H14.9215V73.2691ZM5.02148 73.2691V72.2691H4.02148V73.2691H5.02148ZM27.8215 79.6691V66.6691H25.8215V79.6691H27.8215ZM27.8215 66.6691C27.8215 64.8661 27.4102 63.2543 26.4812 61.9124C25.5513 60.5692 24.1632 59.5838 22.3632 58.9293L21.6797 60.8089C23.1798 61.3544 24.1917 62.119 24.8368 63.0508C25.4828 63.9839 25.8215 65.172 25.8215 66.6691H27.8215ZM22.3565 58.9269L17.8565 57.3269L17.1865 59.2113L21.6865 60.8113L22.3565 58.9269ZM17.8518 57.3252C16.9293 57.0023 16.5102 56.6917 16.2864 56.3771C16.064 56.0642 15.9215 55.5886 15.9215 54.6691H13.9215C13.9215 55.7496 14.079 56.724 14.6565 57.5361C15.2328 58.3465 16.1137 58.8358 17.1911 59.2129L17.8518 57.3252ZM15.9215 54.6691V13.3691H13.9215V54.6691H15.9215ZM15.9215 13.3691C15.9215 13.3079 15.9279 13.2592 15.9361 13.226C15.9443 13.1927 15.95 13.1919 15.9385 13.2083C15.9322 13.2172 15.9221 13.2292 15.9079 13.2415C15.8934 13.254 15.8788 13.2633 15.8664 13.2693C15.8395 13.2824 15.8476 13.2691 15.9215 13.2691V11.2691C15.2334 11.2691 14.6622 11.5482 14.3045 12.0549C13.9882 12.503 13.9215 13.0132 13.9215 13.3691H15.9215ZM15.9215 13.2691C15.9959 13.2691 15.9999 13.2826 15.968 13.2666C15.9531 13.2592 15.9363 13.2481 15.9205 13.2339C15.905 13.2199 15.8949 13.207 15.8894 13.1988C15.8798 13.1844 15.89 13.1932 15.9015 13.2454C15.9131 13.2972 15.9215 13.3715 15.9215 13.4691H17.9215C17.9215 13.0896 17.864 12.555 17.5535 12.0894C17.1954 11.5522 16.6128 11.2691 15.9215 11.2691V13.2691ZM15.9215 13.4691V51.7691H17.9215V13.4691H15.9215ZM16.9215 52.7691H26.8215V50.7691H16.9215V52.7691ZM27.8215 51.7691V15.3691H25.8215V51.7691H27.8215ZM27.8215 15.3691C27.8215 11.195 26.2797 8.31108 23.9173 6.5004C21.5984 4.723 18.607 4.06909 15.8215 4.06909V6.06909C18.336 6.06909 20.8446 6.66517 22.7007 8.08777C24.5133 9.47709 25.8215 11.7431 25.8215 15.3691H27.8215ZM15.8215 4.06909C12.8709 4.06909 9.90495 4.63363 7.6629 6.41034C5.37581 8.22276 4.02148 11.1498 4.02148 15.4691H6.02148C6.02148 11.5884 7.21716 9.31542 8.90507 7.97783C10.638 6.60455 13.0721 6.06909 15.8215 6.06909V4.06909ZM4.02148 15.4691V58.2691H6.02148V15.4691H4.02148ZM4.02148 58.2691C4.02148 59.9719 4.40763 61.5294 5.3062 62.8551C6.20499 64.1812 7.56018 65.1925 9.35496 65.8995L10.088 64.0387C8.58279 63.4457 7.58798 62.657 6.96177 61.733C6.33534 60.8088 6.02148 59.6663 6.02148 58.2691H4.02148ZM9.37417 65.9068L14.7742 67.9068L15.4688 66.0313L10.0688 64.0313L9.37417 65.9068ZM14.7334 67.8907C15.556 68.2371 15.7298 68.5115 15.804 68.6992C15.8554 68.8291 15.892 69.0079 15.9092 69.2935C15.9272 69.5898 15.9215 69.917 15.9215 70.3691H17.9215C17.9215 69.9712 17.9283 69.5483 17.9056 69.1728C17.8822 68.7865 17.8251 68.3716 17.6639 67.9639C17.3132 67.0767 16.5869 66.5011 15.5095 66.0475L14.7334 67.8907ZM15.9215 70.3691V81.3691H17.9215V70.3691H15.9215ZM15.9215 81.3691C15.9215 81.5301 15.9112 81.6729 15.8913 81.7922C15.871 81.9142 15.8447 81.9866 15.8271 82.0219C15.8114 82.0532 15.816 82.0292 15.8605 81.9995C15.9113 81.9657 15.9465 81.9691 15.9215 81.9691V83.9691C16.2965 83.9691 16.6567 83.8725 16.9699 83.6636C17.2769 83.459 17.4816 83.1849 17.6159 82.9163C17.8704 82.4073 17.9215 81.8202 17.9215 81.3691H15.9215ZM15.9215 81.9691C15.8708 81.9691 15.895 81.9595 15.9467 81.9909C15.9985 82.0223 16.0145 82.0564 16.0081 82.044C15.9976 82.024 15.9726 81.9632 15.9523 81.8383C15.9324 81.7159 15.9215 81.5605 15.9215 81.3691H13.9215C13.9215 81.8539 13.9682 82.4581 14.2349 82.9692C14.3784 83.2443 14.5945 83.5096 14.9088 83.7004C15.223 83.8912 15.5722 83.9691 15.9215 83.9691V81.9691ZM15.9215 81.3691V73.2691H13.9215V81.3691H15.9215ZM14.9215 72.2691H5.02148V74.2691H14.9215V72.2691ZM4.02148 73.2691V79.7691H6.02148V73.2691H4.02148ZM4.02148 79.7691C4.02148 84.0884 5.37581 87.0154 7.6629 88.8278C9.90495 90.6046 12.8709 91.1691 15.8215 91.1691V89.1691C13.0721 89.1691 10.638 88.6336 8.90507 87.2603C7.21716 85.9228 6.02148 83.6498 6.02148 79.7691H4.02148ZM15.8215 91.1691C18.6146 91.1691 21.6082 90.4867 23.9262 88.6684C26.2841 86.8188 27.8215 83.8877 27.8215 79.6691H25.8215C25.8215 83.3505 24.5089 85.6694 22.6918 87.0948C20.8348 88.5515 18.3284 89.1691 15.8215 89.1691V91.1691ZM56.8262 7.36909H57.8262V6.36909H56.8262V7.36909ZM46.9262 7.36909V6.36909H45.9262V7.36909H46.9262ZM44.9262 9.86909H45.9262V8.86909H44.9262V9.86909ZM35.0262 9.86909V8.86909H34.0262V9.86909H35.0262ZM57.8262 80.2691V7.36909H55.8262V80.2691H57.8262ZM56.8262 6.36909H46.9262V8.36909H56.8262V6.36909ZM45.9262 7.36909V82.3691H47.9262V7.36909H45.9262ZM45.9262 82.3691C45.9262 82.3965 45.9217 82.4242 45.9146 82.4463C45.9078 82.4677 45.9017 82.474 45.9042 82.4709C45.9089 82.4652 45.9168 82.4594 45.921 82.4575C45.9244 82.456 45.8992 82.4691 45.8262 82.4691V84.4691C46.5048 84.4691 47.0707 84.2006 47.4481 83.7423C47.7996 83.3155 47.9262 82.8008 47.9262 82.3691H45.9262ZM45.8262 82.4691C45.7504 82.4691 45.7616 82.4552 45.8133 82.4824C45.8385 82.4956 45.8649 82.5144 45.8891 82.538C45.9129 82.5613 45.9286 82.5835 45.9381 82.5996C45.9549 82.6281 45.9482 82.6307 45.9397 82.5816C45.9314 82.5334 45.9262 82.4649 45.9262 82.3691H43.9262C43.9262 82.644 43.9441 83.1544 44.2142 83.6136C44.5458 84.1772 45.1282 84.4691 45.8262 84.4691V82.4691ZM45.9262 82.3691V9.86909H43.9262V82.3691H45.9262ZM44.9262 8.86909H35.0262V10.8691H44.9262V8.86909ZM34.0262 9.86909V80.2691H36.0262V9.86909H34.0262ZM34.0262 80.2691C34.0262 84.5884 35.3805 87.5154 37.6676 89.3278C39.9096 91.1046 42.8756 91.6691 45.8262 91.6691V89.6691C43.0768 89.6691 40.6427 89.1336 38.9098 87.7603C37.2218 86.4228 36.0262 84.1498 36.0262 80.2691H34.0262ZM45.8262 91.6691C48.6117 91.6691 51.6049 91.0151 53.925 89.223C56.2878 87.3978 57.8262 84.4886 57.8262 80.2691H55.8262C55.8262 83.9496 54.5145 86.2404 52.7024 87.6402C50.8474 89.0731 48.3406 89.6691 45.8262 89.6691V91.6691ZM65.5027 4.86909V3.86909H64.5027V4.86909H65.5027ZM65.5027 88.0691H64.5027V89.0691H65.5027V88.0691ZM75.4027 88.0691V89.0691H76.4027V88.0691H75.4027ZM75.4027 65.9691V64.9691H74.4027V65.9691H75.4027ZM75.4027 58.2691H74.4027V59.2691H75.4027V58.2691ZM75.4027 12.0691V11.0691H74.4027V12.0691H75.4027ZM88.3027 55.1691V15.2691H86.3027V55.1691H88.3027ZM88.3027 15.2691C88.3027 11.0107 87.2087 8.05238 84.9012 6.21225C82.6488 4.416 79.4543 3.86909 75.7027 3.86909V5.86909C79.3512 5.86909 81.9567 6.42218 83.6543 7.77592C85.2968 9.08579 86.3027 11.3275 86.3027 15.2691H88.3027ZM75.7027 3.86909H65.5027V5.86909H75.7027V3.86909ZM64.5027 4.86909V88.0691H66.5027V4.86909H64.5027ZM65.5027 89.0691H75.4027V87.0691H65.5027V89.0691ZM76.4027 88.0691V65.9691H74.4027V88.0691H76.4027ZM75.4027 66.9691H77.1027V64.9691H75.4027V66.9691ZM77.1027 66.9691C80.3795 66.9691 83.2333 66.2432 85.2595 64.2888C87.292 62.3284 88.3027 59.3157 88.3027 55.1691H86.3027C86.3027 59.0225 85.3635 61.4098 83.871 62.8493C82.3722 64.295 80.126 64.9691 77.1027 64.9691V66.9691ZM76.4027 56.6691C76.4027 56.95 76.3157 57.0422 76.2513 57.0922C76.1489 57.1719 75.9198 57.2691 75.5027 57.2691V59.2691C76.1856 59.2691 76.9066 59.1163 77.4792 58.6709C78.0898 58.196 78.4027 57.4882 78.4027 56.6691H76.4027ZM75.5027 57.2691H75.4027V59.2691H75.5027V57.2691ZM76.4027 58.2691V12.0691H74.4027V58.2691H76.4027ZM75.4027 13.0691H75.9027V11.0691H75.4027V13.0691ZM75.9027 13.0691C76.0891 13.0691 76.2024 13.0947 76.2644 13.1169C76.3215 13.1374 76.338 13.1555 76.3402 13.1578C76.341 13.1586 76.4027 13.2221 76.4027 13.4691H78.4027C78.4027 12.9161 78.2645 12.2796 77.7902 11.7803C77.3065 11.2712 76.6305 11.0691 75.9027 11.0691V13.0691ZM76.4027 13.4691V56.6691H78.4027V13.4691H76.4027ZM118.291 74.2691V21.3691H116.291V74.2691H118.291ZM118.291 21.3691C118.291 17.195 116.749 14.3111 114.387 12.5004C112.068 10.723 109.077 10.0691 106.291 10.0691V12.0691C108.806 12.0691 111.314 12.6652 113.17 14.0878C114.983 15.4771 116.291 17.7431 116.291 21.3691H118.291ZM106.291 10.0691C103.34 10.0691 100.374 10.6336 98.1324 12.4103C95.8453 14.2228 94.491 17.1498 94.491 21.4691H96.491C96.491 17.5884 97.6867 15.3154 99.3746 13.9778C101.108 12.6046 103.542 12.0691 106.291 12.0691V10.0691ZM94.491 21.4691V74.2691H96.491V21.4691H94.491ZM94.491 74.2691C94.491 78.5884 95.8453 81.5154 98.1324 83.3278C100.374 85.1046 103.34 85.6691 106.291 85.6691V83.6691C103.542 83.6691 101.108 83.1336 99.3746 81.7603C97.6867 80.4228 96.491 78.1498 96.491 74.2691H94.491ZM106.291 85.6691C109.077 85.6691 112.07 85.0151 114.39 83.223C116.753 81.3978 118.291 78.4886 118.291 74.2691H116.291C116.291 77.9496 114.979 80.2404 113.167 81.6402C111.312 83.0731 108.805 83.6691 106.291 83.6691V85.6691ZM106.391 76.3691C106.391 76.3965 106.387 76.4242 106.379 76.4463C106.373 76.4677 106.367 76.474 106.369 76.4709C106.374 76.4652 106.382 76.4594 106.386 76.4575C106.389 76.456 106.364 76.4691 106.291 76.4691V78.4691C106.97 78.4691 107.536 78.2006 107.913 77.7423C108.264 77.3155 108.391 76.8008 108.391 76.3691H106.391ZM106.291 76.4691C106.215 76.4691 106.226 76.4552 106.278 76.4824C106.303 76.4956 106.33 76.5144 106.354 76.538C106.378 76.5613 106.393 76.5835 106.403 76.5996C106.42 76.6281 106.413 76.6307 106.405 76.5816C106.396 76.5334 106.391 76.4649 106.391 76.3691H104.391C104.391 76.644 104.409 77.1544 104.679 77.6136C105.011 78.1772 105.593 78.4691 106.291 78.4691V76.4691ZM106.391 76.3691V19.3691H104.391V76.3691H106.391ZM106.391 19.3691C106.391 19.3079 106.397 19.2592 106.406 19.226C106.414 19.1927 106.42 19.1919 106.408 19.2083C106.402 19.2172 106.392 19.2292 106.377 19.2415C106.363 19.254 106.348 19.2633 106.336 19.2693C106.309 19.2824 106.317 19.2691 106.391 19.2691V17.2691C105.703 17.2691 105.132 17.5482 104.774 18.0549C104.458 18.503 104.391 19.0132 104.391 19.3691H106.391ZM106.391 19.2691C106.465 19.2691 106.473 19.2824 106.446 19.2693C106.434 19.2633 106.419 19.254 106.405 19.2415C106.39 19.2292 106.38 19.2172 106.374 19.2083C106.362 19.1919 106.368 19.1927 106.376 19.226C106.385 19.2592 106.391 19.3079 106.391 19.3691H108.391C108.391 19.0132 108.324 18.503 108.008 18.0549C107.65 17.5482 107.079 17.2691 106.391 17.2691V19.2691ZM106.391 19.3691V76.3691H108.391V19.3691H106.391ZM147.768 94.0691V95.0691H148.768V94.0691H147.768ZM143.468 62.2691L143.21 61.3029L140.052 62.145L143.14 63.2141L143.468 62.2691ZM125.968 11.3691V10.3691H124.968V11.3691H125.968ZM125.968 91.5691H124.968V92.5691H125.968V91.5691ZM135.868 91.5691V92.5691H136.868V91.5691H135.868ZM135.868 69.6691V68.6691H134.868V69.6691H135.868ZM137.868 94.0691H136.868V95.0691H137.868V94.0691ZM135.868 61.9691H134.868V62.9691H135.868V61.9691ZM135.868 19.0691V18.0691H134.868V19.0691H135.868ZM148.768 94.0691V68.8691H146.768V94.0691H148.768ZM148.768 68.8691C148.768 65.5203 146.866 62.3872 143.795 61.3241L143.14 63.2141C145.269 63.9509 146.768 66.2179 146.768 68.8691H148.768ZM143.725 63.2353C145.447 62.7762 146.734 61.837 147.578 60.5567C148.411 59.2921 148.768 57.7623 148.768 56.1691H146.768C146.768 57.4759 146.474 58.5961 145.908 59.4564C145.351 60.3012 144.488 60.9619 143.21 61.3029L143.725 63.2353ZM148.768 56.1691V22.9691H146.768V56.1691H148.768ZM148.768 22.9691C148.768 18.8668 147.952 15.6682 145.998 13.4996C144.022 11.3076 141.068 10.3691 137.268 10.3691V12.3691C140.767 12.3691 143.063 13.2306 144.512 14.8386C145.983 16.47 146.768 19.0714 146.768 22.9691H148.768ZM137.268 10.3691H125.968V12.3691H137.268V10.3691ZM124.968 11.3691V91.5691H126.968V11.3691H124.968ZM125.968 92.5691H135.868V90.5691H125.968V92.5691ZM136.868 91.5691V69.6691H134.868V91.5691H136.868ZM135.868 70.6691H136.668V68.6691H135.868V70.6691ZM136.668 70.6691C136.761 70.6691 136.79 70.6866 136.784 70.6836C136.775 70.6793 136.772 70.6729 136.779 70.6824C136.789 70.6973 136.813 70.7402 136.834 70.8277C136.854 70.9148 136.868 71.0289 136.868 71.1691H138.868C138.868 70.6711 138.779 70.0653 138.431 69.5558C138.042 68.9849 137.42 68.6691 136.668 68.6691V70.6691ZM136.868 71.1691V94.0691H138.868V71.1691H136.868ZM137.868 95.0691H147.768V93.0691H137.868V95.0691ZM136.868 60.8691C136.868 60.9373 136.859 60.9876 136.85 61.0194C136.841 61.0513 136.834 61.0557 136.843 61.0441C136.853 61.03 136.877 61.0058 136.914 60.9872C136.952 60.9684 136.975 60.9691 136.968 60.9691V62.9691C137.582 62.9691 138.104 62.6959 138.443 62.2441C138.757 61.8253 138.868 61.3204 138.868 60.8691H136.868ZM136.968 60.9691H135.868V62.9691H136.968V60.9691ZM136.868 61.9691V19.0691H134.868V61.9691H136.868ZM135.868 20.0691H136.668V18.0691H135.868V20.0691ZM136.668 20.0691C136.762 20.0691 136.787 20.0867 136.777 20.0815C136.764 20.0747 136.76 20.0657 136.767 20.0779C136.78 20.0964 136.807 20.1482 136.83 20.2538C136.853 20.3588 136.868 20.4966 136.868 20.6691H138.868C138.868 20.1388 138.785 19.5097 138.443 18.9853C138.054 18.3889 137.423 18.0691 136.668 18.0691V20.0691ZM136.868 20.6691V60.8691H138.868V20.6691H136.868ZM170.358 16.0691V17.0691H171.358V16.0691H170.358ZM170.358 8.36909H171.358V7.36909H170.358V8.36909ZM154.458 8.36909V7.36909H153.458V8.36909H154.458ZM154.458 16.0691H153.458V17.0691H154.458V16.0691ZM157.458 16.0691H158.458V15.0691H157.458V16.0691ZM157.458 85.0691H156.458V86.0691H157.458V85.0691ZM167.358 85.0691V86.0691H168.358V85.0691H167.358ZM167.358 16.0691V15.0691H166.358V16.0691H167.358ZM171.358 16.0691V8.36909H169.358V16.0691H171.358ZM170.358 7.36909H154.458V9.36909H170.358V7.36909ZM153.458 8.36909V16.0691H155.458V8.36909H153.458ZM154.458 17.0691H157.458V15.0691H154.458V17.0691ZM156.458 16.0691V85.0691H158.458V16.0691H156.458ZM157.458 86.0691H167.358V84.0691H157.458V86.0691ZM168.358 85.0691V16.0691H166.358V85.0691H168.358ZM167.358 17.0691H170.358V15.0691H167.358V17.0691ZM191.546 89.7691V90.7691H192.546V89.7691H191.546ZM191.546 82.0691H192.546V81.0691H191.546V82.0691ZM187.446 82.0691H186.446V83.0691H187.446V82.0691ZM187.446 64.6691V63.6691H186.446V64.6691H187.446ZM191.546 64.6691V65.6691H192.546V64.6691H191.546ZM191.546 56.9691H192.546V55.9691H191.546V56.9691ZM187.446 56.9691H186.446V57.9691H187.446V56.9691ZM187.446 12.7691V11.7691H186.446V12.7691H187.446ZM191.546 12.7691V13.7691H192.546V12.7691H191.546ZM191.546 5.06909H192.546V4.06909H191.546V5.06909ZM177.546 5.06909V4.06909H176.546V5.06909H177.546ZM177.546 89.7691H176.546V90.7691H177.546V89.7691ZM192.546 89.7691V82.0691H190.546V89.7691H192.546ZM191.546 81.0691H187.446V83.0691H191.546V81.0691ZM188.446 82.0691V64.6691H186.446V82.0691H188.446ZM187.446 65.6691H191.546V63.6691H187.446V65.6691ZM192.546 64.6691V56.9691H190.546V64.6691H192.546ZM191.546 55.9691H187.446V57.9691H191.546V55.9691ZM188.446 56.9691V12.7691H186.446V56.9691H188.446ZM187.446 13.7691H191.546V11.7691H187.446V13.7691ZM192.546 12.7691V5.06909H190.546V12.7691H192.546ZM191.546 4.06909H177.546V6.06909H191.546V4.06909ZM176.546 5.06909V89.7691H178.546V5.06909H176.546ZM177.546 90.7691H191.546V88.7691H177.546V90.7691Z" fill="#F39200"/>
<path d="M24.8215 81.8412V68.8412C24.8215 65.5412 23.3215 63.2412 20.0215 62.0412L15.5215 60.4412C13.5215 59.7412 12.9215 58.8412 12.9215 56.8412V15.5412C12.9215 15.0412 13.1215 14.4412 13.9215 14.4412C14.7215 14.4412 14.9215 15.0412 14.9215 15.6412V53.9412H24.8215V17.5412C24.8215 9.7412 19.1215 7.24121 13.8215 7.24121C8.12148 7.24121 3.02148 9.44121 3.02148 17.6412V60.4412C3.02148 63.5412 4.42148 65.8412 7.72148 67.1412L13.1215 69.1412C15.0215 69.9412 14.9215 70.8412 14.9215 72.5412V83.5412C14.9215 84.3412 14.7215 85.1412 13.9215 85.1412C13.1215 85.1412 12.9215 84.4412 12.9215 83.5412V75.4412H3.02148V81.9412C3.02148 90.1412 8.12148 92.3412 13.8215 92.3412C19.1215 92.3412 24.8215 89.7412 24.8215 81.8412ZM54.8262 82.4412V9.54121H44.9262V84.5412C44.9262 85.0412 44.6262 85.6412 43.8262 85.6412C43.0262 85.6412 42.9262 85.0412 42.9262 84.5412V12.0412H33.0262V82.4412C33.0262 90.6412 38.1262 92.8412 43.8262 92.8412C49.1262 92.8412 54.8262 90.3412 54.8262 82.4412ZM85.3027 57.3412V17.4412C85.3027 9.2412 81.1027 7.04121 73.7027 7.04121H63.5027V90.2412H73.4027V68.1412H75.1027C81.4027 68.1412 85.3027 65.3412 85.3027 57.3412ZM75.4027 58.8412C75.4027 59.9412 74.6027 60.4412 73.5027 60.4412H73.4027V14.2412H73.9027C75.0027 14.2412 75.4027 14.8412 75.4027 15.6412V58.8412ZM115.291 76.4412V23.5412C115.291 15.7412 109.591 13.2412 104.291 13.2412C98.591 13.2412 93.491 15.4412 93.491 23.6412V76.4412C93.491 84.6412 98.591 86.8412 104.291 86.8412C109.591 86.8412 115.291 84.3412 115.291 76.4412ZM105.391 78.5412C105.391 79.0412 105.091 79.6412 104.291 79.6412C103.491 79.6412 103.391 79.0412 103.391 78.5412V21.5412C103.391 21.0412 103.591 20.4412 104.391 20.4412C105.191 20.4412 105.391 21.0412 105.391 21.5412V78.5412ZM145.768 96.2412V71.0412C145.768 68.0412 144.068 65.3412 141.468 64.4412C144.468 63.6412 145.768 61.2412 145.768 58.3412V25.1412C145.768 17.1412 142.568 13.5412 135.268 13.5412H123.968V93.7412H133.868V71.8412H134.668C135.568 71.8412 135.868 72.5412 135.868 73.3412V96.2412H145.768ZM135.868 63.0412C135.868 63.6412 135.568 64.1412 134.968 64.1412H133.868V21.2412H134.668C135.568 21.2412 135.868 21.9412 135.868 22.8412V63.0412ZM168.358 18.2412V10.5412H152.458V18.2412H155.458V87.2412H165.358V18.2412H168.358ZM189.546 91.9412V84.2412H185.446V66.8412H189.546V59.1412H185.446V14.9412H189.546V7.24121H175.546V91.9412H189.546Z" fill="white"/>
</svg>
